<svg id="Layer_1" data-name="Layer 1" xmlns="http://www.w3.org/2000/svg" xmlns:xlink="http://www.w3.org/1999/xlink" viewBox="0 0 423.74 74.19"><defs><style>.cls-1{fill:url(#linear-gradient);}.cls-2{fill:url(#linear-gradient-2);}.cls-3{fill:url(#linear-gradient-3);}.cls-4{fill:url(#linear-gradient-4);}.cls-5{fill:#c74b50;}.cls-6{fill:#502d3e;}</style><linearGradient id="linear-gradient" x1="102.62" y1="0.39" x2="102.62" y2="73.84" gradientUnits="userSpaceOnUse"><stop offset="0" stop-color="#d04d51"/><stop offset="1" stop-color="#472b3d"/></linearGradient><linearGradient id="linear-gradient-2" x1="250.86" y1="0.39" x2="250.86" y2="73.84" xlink:href="#linear-gradient"/><linearGradient id="linear-gradient-3" x1="32.72" y1="-5.31" x2="32.72" y2="60.86" xlink:href="#linear-gradient"/><linearGradient id="linear-gradient-4" x1="176.05" y1="0.27" x2="176.05" y2="73.78" xlink:href="#linear-gradient"/></defs><title>Artboard 3</title><path class="cls-1" d="M102.72.39A36.84,36.84,0,0,1,139.8,37.12a37.18,37.18,0,0,1-74.36,0A37.07,37.07,0,0,1,102.72.39Zm8.49,40.27c-2.94-2.51-2.91-4.51.12-6.94,2.32-1.86,4.89-3.41,7.36-5.11,2.69-1.86,3-3.81.54-6.21-4.25-4.17-9.3-6.36-13.67-6.5h-.24C94.18,15.9,85.74,22,83,31a21.21,21.21,0,0,0,9.36,24.26,21.79,21.79,0,0,0,25.8-2.59c3.47-3.16,3.42-4.43-.39-7.27-2.15-1.61-4.49-3-6.54-4.75"/><path class="cls-2" d="M251,.39A36.83,36.83,0,0,1,288,37.12c-.05,20.29-16.75,36.72-37.28,36.72a36.83,36.83,0,0,1-37.08-36.72A37.08,37.08,0,0,1,251,.39ZM261,55.27A21.32,21.32,0,0,0,270.52,31c-2.69-9-11.11-15.11-22.24-15.11H248c-4.37.14-9.43,2.33-13.71,6.5-2.45,2.4-2.16,4.35.52,6.21,2.45,1.7,5,3.25,7.33,5.11,3,2.43,3,4.43.07,6.94-2.05,1.74-4.39,3.14-6.56,4.75-3.82,2.84-3.88,4.11-.44,7.27A21.79,21.79,0,0,0,261,55.27"/><path class="cls-3" d="M32.72,30.54,48.34.27h17.1L40.6,45.17V73.78H24.83V45.67L0,.27H17.2Z"/><path class="cls-4" d="M176.05,30.54,191.67.27h17.1l-24.83,44.9V73.78H168.17V45.67L143.33.27h17.21Z"/><polygon class="cls-5" points="106.58 23.33 106.35 24.62 107.28 25.54 105.98 25.72 105.39 26.89 104.82 25.71 103.53 25.52 104.47 24.61 104.26 23.32 105.41 23.93 106.58 23.33"/><polygon class="cls-5" points="245.13 23.37 246.29 23.96 247.43 23.34 247.23 24.63 248.17 25.53 246.88 25.73 246.32 26.9 245.73 25.74 244.44 25.57 245.36 24.65 245.13 23.37"/><path class="cls-6" d="M337.27,46.71a6.47,6.47,0,0,1-2.65,5.57q-2.64,1.94-7.57,1.94a18,18,0,0,1-8-1.5V48.17a19.63,19.63,0,0,0,8.14,2q4.86,0,4.86-2.93a2.32,2.32,0,0,0-.54-1.57,6.12,6.12,0,0,0-1.77-1.3,30.36,30.36,0,0,0-3.42-1.53c-2.86-1.1-4.79-2.21-5.8-3.31a6.13,6.13,0,0,1-1.51-4.3,5.65,5.65,0,0,1,2.57-5,12.18,12.18,0,0,1,7-1.76,19.65,19.65,0,0,1,8.27,1.78l-1.71,4a18.48,18.48,0,0,0-6.74-1.66c-2.78,0-4.17.8-4.17,2.38a2.38,2.38,0,0,0,1.09,2,23.42,23.42,0,0,0,4.74,2.22,21.87,21.87,0,0,1,4.45,2.17,6.53,6.53,0,0,1,2.07,2.28A6.67,6.67,0,0,1,337.27,46.71Z"/><path class="cls-6" d="M352.19,50a12.64,12.64,0,0,0,3.86-.61v4a10.84,10.84,0,0,1-2.25.64,15.76,15.76,0,0,1-2.86.26q-7.49,0-7.49-7.89V33h-3.38V30.64l3.63-1.93,1.79-5.24h3.25V29h7.06v4h-7.06V46.24a3.73,3.73,0,0,0,.95,2.81A3.47,3.47,0,0,0,352.19,50Z"/><path class="cls-6" d="M376.51,53.77l-1.05-3.45h-.18a10.23,10.23,0,0,1-3.61,3.08,11.51,11.51,0,0,1-4.66.82,7.88,7.88,0,0,1-5.71-2,7.39,7.39,0,0,1-2.05-5.58,6.55,6.55,0,0,1,2.85-5.78q2.85-2,8.67-2.13l4.28-.13V37.3a5,5,0,0,0-1.11-3.55,4.5,4.5,0,0,0-3.44-1.18,12,12,0,0,0-3.65.56,26.06,26.06,0,0,0-3.36,1.32l-1.7-3.76a18.05,18.05,0,0,1,4.41-1.61,20.71,20.71,0,0,1,4.53-.55q4.72,0,7.13,2.07t2.41,6.47v16.7Zm-7.84-3.59a6.51,6.51,0,0,0,4.6-1.6A5.81,5.81,0,0,0,375,44.09V41.94l-3.19.13a10.89,10.89,0,0,0-5.41,1.24,3.79,3.79,0,0,0-1.69,3.4,3.32,3.32,0,0,0,1,2.57A4.24,4.24,0,0,0,368.67,50.18Z"/><path class="cls-6" d="M400.2,28.53a12.59,12.59,0,0,1,2.62.23l-.52,4.91A9.85,9.85,0,0,0,400,33.4a6.74,6.74,0,0,0-5.12,2.06,7.44,7.44,0,0,0-2,5.36v13h-5.27V29h4.13l.69,4.37h.27a9.77,9.77,0,0,1,3.22-3.52A7.68,7.68,0,0,1,400.2,28.53Z"/><path class="cls-6" d="M424,53.77h-18.8V50.52L417.7,33H405.93V29h17.68v3.68L411.36,49.73H424Z"/></svg>