<svg id="Layer_1" data-name="Layer 1" xmlns="http://www.w3.org/2000/svg" viewBox="0 0 430.33 80.67"><defs><style>.cls-1{fill:#fff;}</style></defs><title>Artboard 2</title><path class="cls-1" d="M105.2,3.7a36.84,36.84,0,0,1,37.08,36.73,37.18,37.18,0,0,1-74.36,0A37.07,37.07,0,0,1,105.2,3.7ZM113.69,44c-2.94-2.51-2.91-4.51.12-6.94,2.32-1.86,4.89-3.41,7.36-5.11,2.69-1.86,3-3.81.54-6.21-4.25-4.17-9.3-6.36-13.67-6.5h-.24c-11.13,0-19.58,6.15-22.34,15.12a21.23,21.23,0,0,0,9.36,24.26A21.79,21.79,0,0,0,120.62,56c3.47-3.16,3.42-4.43-.39-7.27-2.15-1.62-4.49-3-6.54-4.75"/><path class="cls-1" d="M253.44,3.7a36.83,36.83,0,0,1,37.08,36.73c0,20.28-16.75,36.72-37.28,36.72a36.84,36.84,0,0,1-37.08-36.72A37.08,37.08,0,0,1,253.44,3.7Zm10.08,54.88A21.32,21.32,0,0,0,273,34.32c-2.69-9-11.11-15.12-22.24-15.12h-.25c-4.37.14-9.43,2.33-13.71,6.5-2.45,2.4-2.16,4.35.52,6.21,2.45,1.7,5,3.25,7.33,5.11,3,2.43,3,4.43.07,6.94-2.05,1.74-4.39,3.13-6.56,4.75-3.82,2.84-3.88,4.11-.44,7.27a21.79,21.79,0,0,0,25.8,2.59"/><path class="cls-1" d="M35.2,33.85,50.82,3.58h17.1L43.08,48.48V77.09H27.31V49L2.48,3.58h17.2Z"/><path class="cls-1" d="M178.53,33.85,194.15,3.58h17.1l-24.83,44.9V77.09H170.65V49L145.81,3.58H163Z"/><polygon class="cls-1" points="109.06 26.64 108.83 27.93 109.76 28.85 108.46 29.03 107.88 30.2 107.3 29.02 106.01 28.82 106.95 27.92 106.74 26.63 107.89 27.24 109.06 26.64"/><polygon class="cls-1" points="247.61 26.68 248.77 27.27 249.91 26.65 249.71 27.94 250.65 28.84 249.36 29.04 248.8 30.21 248.21 29.05 246.92 28.88 247.84 27.96 247.61 26.68"/><path class="cls-1" d="M339.75,50a6.47,6.47,0,0,1-2.65,5.57q-2.64,1.94-7.57,1.94a17.81,17.81,0,0,1-8-1.51V51.44a19.5,19.5,0,0,0,8.14,2q4.86,0,4.86-2.93A2.32,2.32,0,0,0,334,49a6.12,6.12,0,0,0-1.77-1.3,30.36,30.36,0,0,0-3.42-1.53c-2.86-1.1-4.79-2.21-5.8-3.31a6.14,6.14,0,0,1-1.51-4.31,5.64,5.64,0,0,1,2.57-4.94,12.18,12.18,0,0,1,7-1.76,19.79,19.79,0,0,1,8.27,1.77l-1.71,4a18.48,18.48,0,0,0-6.74-1.66q-4.17,0-4.17,2.38a2.39,2.39,0,0,0,1.09,2,23.42,23.42,0,0,0,4.74,2.22A22.28,22.28,0,0,1,337,44.63a6.6,6.6,0,0,1,2.06,2.28A6.67,6.67,0,0,1,339.75,50Z"/><path class="cls-1" d="M354.67,53.24a12.64,12.64,0,0,0,3.86-.61v4a10.66,10.66,0,0,1-2.25.64,15.68,15.68,0,0,1-2.86.26q-7.49,0-7.49-7.89V36.25h-3.38V33.92L346.18,32,348,26.75h3.25v5.51h7.06v4h-7.06V49.52a3.69,3.69,0,0,0,1,2.81A3.42,3.42,0,0,0,354.67,53.24Z"/><path class="cls-1" d="M379,57.05l-1.05-3.45h-.18a10.23,10.23,0,0,1-3.61,3.08,11.51,11.51,0,0,1-4.66.82,7.88,7.88,0,0,1-5.71-2,7.39,7.39,0,0,1-2-5.58,6.55,6.55,0,0,1,2.85-5.78q2.85-1.95,8.67-2.13l4.28-.13V40.58A5,5,0,0,0,376.42,37,4.53,4.53,0,0,0,373,35.85a11.7,11.7,0,0,0-3.65.56A26.64,26.64,0,0,0,366,37.73L364.27,34a18.46,18.46,0,0,1,4.41-1.6,20.71,20.71,0,0,1,4.53-.55q4.73,0,7.13,2.07t2.41,6.47v16.7Zm-7.84-3.59a6.51,6.51,0,0,0,4.6-1.6,5.81,5.81,0,0,0,1.74-4.49V45.21l-3.18.14a10.93,10.93,0,0,0-5.42,1.24A3.8,3.8,0,0,0,367.2,50a3.29,3.29,0,0,0,1,2.56A4.2,4.2,0,0,0,371.15,53.46Z"/><path class="cls-1" d="M402.68,31.81a12.59,12.59,0,0,1,2.62.23L404.78,37a9.85,9.85,0,0,0-2.33-.27,6.74,6.74,0,0,0-5.12,2.06,7.43,7.43,0,0,0-2,5.35v13H390.1V32.26h4.13l.69,4.37h.27a9.77,9.77,0,0,1,3.22-3.52A7.68,7.68,0,0,1,402.68,31.81Z"/><path class="cls-1" d="M426.45,57.05h-18.8V53.8l12.53-17.5H408.41v-4h17.68v3.68L413.84,53h12.61Z"/></svg>